<svg width="384" height="768" viewBox="0 0 384 768" fill="none" xmlns="http://www.w3.org/2000/svg">
<path d="M67.9733 198.216C62.5264 199.129 58.8182 204.295 60.0836 209.671C66.2472 235.857 79.2017 260.025 97.7186 279.701C118.525 301.809 145.421 317.251 175.004 324.074C204.586 330.896 235.528 328.793 263.916 318.031C292.304 307.269 316.862 288.33 334.487 263.61C352.111 238.89 362.009 209.499 362.929 179.153C363.85 148.808 355.751 118.871 339.657 93.1282C323.563 67.3855 300.197 46.9934 272.514 34.5304C247.877 23.439 220.806 19.0709 194.041 21.7803C188.546 22.3366 184.871 27.5264 185.784 32.9733L207.847 164.638C208.76 170.084 205.084 175.24 199.638 176.153L67.9733 198.216Z" fill="#FFCC68"/>
<mask id="path-2-inside-1_51_109" fill="white">
<path d="M45 174.5C39.4771 174.5 34.9701 178.981 35.2864 184.495C37.0647 215.496 47.0899 245.528 64.4085 271.447C83.5828 300.143 110.836 322.509 142.722 335.717C174.607 348.924 209.694 352.38 243.543 345.647C277.393 338.914 308.486 322.294 332.89 297.89C357.294 273.486 373.914 242.393 380.647 208.543C387.38 174.694 383.924 139.607 370.717 107.722C357.509 75.836 335.143 48.5829 306.447 29.4086C280.528 12.0899 250.496 2.06468 219.495 0.286401C213.981 -0.0298795 209.5 4.47715 209.5 10L209.5 57.3249C209.5 62.8477 213.987 67.2765 219.486 67.791C237.158 69.4447 254.199 75.4683 269.043 85.3872C286.668 97.1637 300.405 113.902 308.517 133.486C316.629 153.07 318.751 174.619 314.616 195.409C310.48 216.199 300.273 235.296 285.284 250.284C270.296 265.273 251.199 275.48 230.409 279.616C209.619 283.751 188.07 281.629 168.486 273.517C148.902 265.405 132.164 251.668 120.387 234.043C110.468 219.199 104.445 202.158 102.791 184.486C102.276 178.987 97.8477 174.5 92.3249 174.5L45 174.5Z"/>
</mask>
<path d="M45 174.5C39.4771 174.5 34.9701 178.981 35.2864 184.495C37.0647 215.496 47.0899 245.528 64.4085 271.447C83.5828 300.143 110.836 322.509 142.722 335.717C174.607 348.924 209.694 352.38 243.543 345.647C277.393 338.914 308.486 322.294 332.89 297.89C357.294 273.486 373.914 242.393 380.647 208.543C387.38 174.694 383.924 139.607 370.717 107.722C357.509 75.836 335.143 48.5829 306.447 29.4086C280.528 12.0899 250.496 2.06468 219.495 0.286401C213.981 -0.0298795 209.5 4.47715 209.5 10L209.5 57.3249C209.5 62.8477 213.987 67.2765 219.486 67.791C237.158 69.4447 254.199 75.4683 269.043 85.3872C286.668 97.1637 300.405 113.902 308.517 133.486C316.629 153.07 318.751 174.619 314.616 195.409C310.48 216.199 300.273 235.296 285.284 250.284C270.296 265.273 251.199 275.48 230.409 279.616C209.619 283.751 188.07 281.629 168.486 273.517C148.902 265.405 132.164 251.668 120.387 234.043C110.468 219.199 104.445 202.158 102.791 184.486C102.276 178.987 97.8477 174.5 92.3249 174.5L45 174.5Z" stroke="#FFA900" stroke-opacity="0.5" stroke-width="10" mask="url(#path-2-inside-1_51_109)"/>
<path fill-rule="evenodd" clip-rule="evenodd" d="M384 407C384 395.954 375.046 387 364 387H20C8.95431 387 0 395.954 0 407V748C0 759.046 8.9543 768 20 768H119.623C135.001 768 144.909 751.132 139.813 736.623C132.819 716.711 129 695.187 129 672.727C129 570.705 207.798 488 305 488C321.765 488 337.983 490.46 353.344 495.056C367.774 499.373 384 489.493 384 474.43V407Z" fill="#EBEBEB"/>
<circle cx="293.5" cy="667.5" r="90.5" fill="#FCAF17" fill-opacity="0.1"/>
<circle cx="293.5" cy="667.5" r="55.5" fill="#FFA900"/>
</svg>
