<svg width="443" height="428" viewBox="0 0 443 428" fill="none" xmlns="http://www.w3.org/2000/svg">
<path fill-rule="evenodd" clip-rule="evenodd" d="M305.356 361.357C284.267 365.968 263.177 370.58 242.087 375.192C239.118 375.841 236.149 376.49 233.181 377.139C234.064 349.911 234.947 322.683 235.83 295.455C235.958 291.522 236.086 287.589 236.213 283.657C231.326 287.937 226.197 292.04 221.521 296.547C215.536 302.316 209.78 308.288 203.62 313.885C193.022 323.514 181.889 332.852 169.617 340.287C156.283 348.365 140.901 353.562 125.418 355.356C119.715 356.017 114.551 355.856 108.901 355.267C103.984 354.755 99.0686 354.242 94.1515 353.729C92.1719 353.523 90.191 353.317 88.2107 353.11C87.7321 353.06 86.1752 353.173 85.7937 352.85C85.1005 352.266 84.739 349.612 84.466 348.768C83.3282 345.258 82.1976 341.747 81.0744 338.233C78.0211 328.682 75.0104 319.117 72.1033 309.52C69.6142 301.305 66.9964 293.054 65.1374 284.667C64.9197 283.683 64.4424 282.396 64.523 281.38C64.6401 279.895 63.9371 280.207 65.8938 280.186C70.4936 280.136 75.3573 281.254 79.9614 281.581C84.7026 281.917 89.4534 282.118 94.2067 282.166C119.377 282.422 148.347 279.693 168.737 263.387C175.573 257.92 182.441 251.601 187.738 244.572C195.208 234.662 199.28 221.466 200.272 209.239C201.387 195.498 199.072 181.326 195.698 168.025C195.015 165.333 195.169 164.326 195.756 161.51C196.243 159.171 196.729 156.833 197.216 154.495C197.352 153.846 197.497 151.118 198.033 150.718C198.972 150.019 203.499 150.787 204.598 150.801L218.236 150.971C227.019 151.081 235.801 151.191 244.584 151.301C249.145 151.358 253.702 152.071 258.235 152.543C267.951 153.553 277.668 154.564 287.384 155.574C289.331 155.776 291.278 155.979 293.226 156.181C291.978 167.246 290.73 178.309 289.481 189.373C288.551 197.624 291.796 205.803 293.526 213.868C297.422 232.037 301.218 250.471 302.662 269.026C304.022 286.496 304.008 304.154 304.451 321.666C304.786 334.895 305.09 348.125 305.356 361.357Z" fill="#FCAF17"/>
<path fill-rule="evenodd" clip-rule="evenodd" d="M169.762 27.4372C169.762 26.4215 170.065 25.7102 170.634 24.8685C171.95 26.0124 174.012 31.6848 176.205 28.0227C176.641 27.2944 176.661 24.5816 178.157 25.4281C178.86 25.8254 178.668 27.74 178.618 28.3889C178.44 30.699 177.392 33.922 174.413 33.7903C171.373 33.6563 169.679 29.9642 169.762 27.4372Z" fill="black"/>
<path fill-rule="evenodd" clip-rule="evenodd" d="M171.596 22.3625C166.541 23.2954 168.558 18.7452 172.261 18.3677C173.633 18.2276 176.001 18.3011 175.676 20.3289C175.388 22.1225 172.932 22.1156 171.596 22.3625Z" fill="black"/>
<path fill-rule="evenodd" clip-rule="evenodd" d="M157.589 37.3573C155.998 37.5083 153.375 35.263 156.018 34.9894C157.239 34.8633 159.802 37.1464 157.589 37.3573Z" fill="black"/>
<path fill-rule="evenodd" clip-rule="evenodd" d="M435.147 63.9634C433.929 64.8962 430.279 61.8958 429.085 61.3657C424.44 59.3004 419.098 58.1584 414.106 57.268C404.221 55.5057 394.09 54.5134 384.055 54.1973C377.933 54.0041 372.138 54.2182 366.084 54.8712C364.576 55.0334 354.379 56.736 354.129 53.9391C353.691 49.028 380.666 49.2612 383.235 49.2695C394.914 49.3095 405.462 50.6066 416.806 53.1525C419.875 53.8413 438.746 61.2058 435.147 63.9634Z" fill="black"/>
<path fill-rule="evenodd" clip-rule="evenodd" d="M112.654 145.107C106.511 146.925 99.5033 146.677 93.74 143.748C92.7503 143.245 90.3439 142.176 91.6189 140.919C92.9904 139.568 96.8315 141.86 98.3272 142.154C105.587 143.579 114.791 140.755 119.933 135.458C122.485 132.831 123.925 129.509 124.533 125.931C124.879 123.891 125.057 121.733 124.933 119.664C124.801 117.473 123.905 115.117 124.505 112.936C127.183 114.525 127.214 118.708 127.405 121.41C127.645 124.816 127.624 128.091 126.668 131.41C124.7 138.243 119.418 143.105 112.654 145.107Z" fill="black"/>
<path fill-rule="evenodd" clip-rule="evenodd" d="M2.90546 327.117C3.10064 327.639 3.2843 328.127 3.49888 328.7C4.32687 327.178 4.32687 327.178 2.90546 327.117ZM10.626 366.873C13.6985 368.293 17.1214 364.478 18.7568 362.353C21.4833 358.81 22.6962 354.726 23.7709 350.46C24.9601 345.74 26.3337 341.075 27.4387 336.334C27.9303 334.219 28.4006 332.099 28.9528 329.999C29.4105 328.262 31.115 325.166 30.3973 323.362C29.1844 320.311 23.226 319.471 23.6321 315.38C24.0049 311.62 30.5616 315.635 32.1357 316.433C35.732 318.256 33.862 315.955 32.1248 314.622C30.8083 313.612 24.685 309.238 27.8903 307.032C29.9706 305.6 34.4955 309.961 36.2193 310.764C38.0299 311.608 38.6894 311.386 40.1569 309.9C41.2013 308.842 42.7536 307.504 43.5604 306.291C45.554 303.292 42.8833 297.414 42.473 293.978C42.3814 293.213 42.9567 289.023 42.4227 288.527C41.7207 287.875 38.7155 288.334 37.6111 288.168C33.6505 287.572 29.7433 287.123 25.7766 286.627C23.1563 286.299 15.3624 284.325 13.8198 287.044C12.5953 289.2 12.9875 293.339 12.9869 295.645C12.9851 300.497 12.9699 305.246 12.5111 310.115C11.5085 320.746 10.7563 331.372 9.79008 342.004C9.32093 347.165 8.35048 352.266 7.86375 357.426C7.56189 360.625 7.08485 365.237 10.626 366.873ZM70.2867 288.357C73.1956 295.637 75.602 303.136 78.1187 310.556C79.2825 313.987 80.356 317.451 81.5368 320.874C82.6678 324.155 84.4875 327.109 85.4204 330.464C87.1818 336.798 88.6639 343.089 90.7502 349.317C91.0509 350.214 90.8745 352.199 91.4134 352.833C92.0759 353.612 95.009 353.495 96.048 353.627C100.297 354.162 104.589 354.574 108.876 354.395C104.865 349.334 100.366 344.689 95.7534 340.163C91.7146 336.201 86.2599 331.701 85.6022 325.663C84.7275 317.64 93.0942 319.252 98.2998 319.738C105.561 320.417 113.792 323.362 121.06 321.73C116.023 314.914 108.388 309.832 102.065 304.284C99.5982 302.12 97.0039 299.741 95.7443 296.629C95.103 295.042 94.7841 293.212 95.2194 291.527C95.7479 289.482 96.9214 289.11 98.6229 288.144C88.5341 288.144 78.3309 287.784 68.7204 284.317C68.3385 285.929 69.746 287.004 70.2867 288.357ZM115.391 352.654C117.153 355.051 120.327 354.398 122.94 354.247C126.775 354.025 130.601 353.559 134.366 352.79C138.167 352.013 141.981 350.973 145.607 349.579C146.37 349.286 148.743 348.617 149.023 347.699C149.276 346.867 147.812 345.163 147.493 344.528C146.476 342.501 145.972 338.889 148.269 337.443C150.165 336.249 152.966 337.445 154.88 338.009C157.714 338.844 161.094 340.532 163.972 339.249C167.644 337.61 171.28 335.255 174.733 333.192C168.496 327.522 162.371 321.74 155.976 316.246C150.118 311.212 143.061 305.419 139.4 298.485C138.021 295.873 137.128 292.172 138.82 289.452C140.336 287.013 143.393 286.927 145.97 287.151C153.626 287.815 161.168 289.717 168.7 291.137C171.235 291.615 187.545 295.4 187.589 291.282C187.598 290.394 185.909 288.371 185.477 287.665C184.497 286.063 183.496 284.479 182.437 282.928C179.97 279.313 177.289 275.854 174.629 272.381C173.287 270.629 171.572 266.978 169.003 267.367C167.832 267.545 166.658 268.849 165.713 269.525C164.084 270.688 162.396 271.765 160.663 272.766C153.656 276.81 145.918 278.863 138.122 280.77C136.354 281.202 127.912 282.072 127.083 283.817C126.669 284.688 127.622 286.746 127.647 287.688C127.684 289.108 127.371 290.581 126.592 291.783C124.33 295.271 119.384 295.088 115.742 294.985C111.114 294.853 106.377 294.625 101.771 295.19C106.353 299.433 111.108 303.482 115.891 307.492C119.262 310.319 123.018 312.996 125.667 316.554C127.934 319.599 129.622 324.783 126.726 328.064C123.626 331.575 116.638 330.02 112.707 329.422C108.123 328.724 103.58 327.869 99.0363 326.959C97.4966 326.651 95.9067 326.294 94.3332 326.212C92.4511 326.113 91.7613 326.006 93.0651 327.754C96.3044 332.095 101.177 335.216 104.587 339.455C106.194 341.452 108.067 343.042 109.755 344.957C111.86 347.345 113.511 350.096 115.391 352.654ZM178.444 328.931C180.658 331.184 183.157 327.98 184.952 326.512C187.643 324.311 190.269 322.032 193 319.879C198.172 315.801 203.556 312.018 208.419 307.558C209.952 306.152 212.47 304.578 212.936 302.423C213.53 299.675 212.103 297.218 213.561 294.455C216.324 289.221 222.037 293.503 225.763 290.49C227.677 288.943 229.025 286.697 230.534 284.782C232.329 282.502 234.622 280.289 235.655 277.542C236.731 274.686 236.872 273.319 234.87 270.904C232.714 268.303 230.098 265.927 228.367 263C227.175 260.984 226.202 258.019 228.075 256.068C229.588 254.491 232.208 254.916 234.166 255.036C237.017 255.213 239.854 255.479 242.656 256.046C244.871 256.493 249.1 257.664 251.226 256.447C256.241 253.579 247.225 246.19 245.228 243.998C240.765 239.1 236.086 234.405 231.446 229.677C227.155 225.305 222.822 220.929 218.792 216.312C215.794 212.874 212.279 208.023 213.887 203.17C215.191 199.237 219.58 199.113 223.072 199.386C228.186 199.787 233.276 200.625 238.368 201.233C242.164 201.687 249.469 203.113 252.707 200.094C256.054 196.975 248.908 187.707 247.061 184.93C243.158 179.063 238.659 173.618 234 168.343C231.737 165.781 229.431 163.258 227.123 160.736C225.119 158.546 223.282 155.787 220.98 153.906C218.463 151.849 214.703 152.091 211.617 151.781C208.372 151.455 204.921 150.974 201.659 150.986C198.688 150.996 199.423 153.859 199.297 156.34C199.267 156.935 198.467 162.208 199.368 162.291C199.467 161.117 199.565 159.943 199.664 158.768C202.201 159.81 204.083 162.053 206.05 163.875C208.013 165.693 210.678 167.545 211.507 170.219C213.844 177.767 204.516 175.089 200.607 174.323C201.486 182.897 203.677 191.23 204.885 199.746C205.392 203.314 205.185 206.544 204.79 210.092C204.565 212.115 204.592 214.157 204.345 216.178C204.15 217.781 203.404 219.615 203.702 221.227C204.247 224.177 207.97 227.273 209.623 229.77C211.818 233.081 213.755 236.67 214.769 240.535C216.603 247.514 213.479 252.531 206.183 253.203C202.892 253.505 199.25 252.997 195.99 252.531C193.187 252.131 189.608 250.052 187.052 251.933C186.005 252.702 185.284 254.066 184.367 255.007C183.036 256.37 181.54 257.587 180.071 258.796C178.685 259.936 174.897 261.961 175.27 263.708C175.552 265.025 177.835 266.906 178.609 267.88C179.624 269.158 180.63 270.441 181.61 271.747C184.097 275.062 186.468 278.485 188.614 282.032C191.21 286.324 194.855 293.991 190.464 298.439C187.921 301.015 183.697 300.561 180.453 300.053C176.032 299.362 171.64 298.473 167.298 297.401C162.95 296.329 158.566 295.581 154.167 294.765C150.409 294.068 146.038 292.736 142.281 294.115C153.258 306.901 166.672 316.949 178.444 328.931ZM242.481 269.787C243.892 268.136 245.337 266.302 246.587 264.517C247.737 262.872 247.643 262.156 245.703 261.643C244.495 261.325 243.155 261.636 241.923 261.492C240.64 261.342 239.361 260.93 238.105 260.646C236.694 260.329 235.112 259.845 233.656 259.849C232.015 259.853 231.854 259.704 232.678 261.18C233.808 263.203 235.997 264.972 237.556 266.657C238.537 267.718 240.885 271.655 242.481 269.787ZM240.666 292.973C241.409 294.607 246.759 293.409 247.62 292.285C249.502 289.826 244.688 284.101 243.423 282.03C241.513 283.297 240.852 284.97 240.738 287.18C240.66 288.71 240.033 291.582 240.666 292.973ZM238.652 374.182C241.848 374.498 246.037 372.653 248.965 371.64C253.02 370.237 257.237 369.236 261.421 368.302C269.824 366.425 278.511 366.164 286.938 364.363C281.583 357.391 275.107 351.384 269.664 344.485C267.691 341.984 264.789 338.399 265.705 334.968C266.603 331.604 270.075 332.348 272.654 333.123C276.113 334.164 279.456 335.612 282.837 336.873C284.436 337.469 291.579 340.901 292.9 338.676C293.791 337.173 288.721 331.578 287.982 330.61C285.219 326.997 282.222 323.573 279.202 320.176C273.566 313.837 267.169 307.352 262.81 300.038C259.542 294.555 258.448 285.901 267.271 286.247C270.914 286.39 274.626 287.52 278.18 288.263C281.464 288.95 286.317 290.467 289.667 289.62C293.195 288.727 289.138 283.458 288.027 281.72C285.681 278.047 282.925 274.615 280.341 271.107C277.56 267.333 274.594 263.641 271.995 259.742C270.377 257.315 267.753 253.081 269.223 250.013C270.91 246.492 276.704 248.669 279.541 249.203C284.915 250.215 290.187 251.9 295.707 251.9C295.652 249.127 292.813 246.69 291.18 244.723C288.728 241.77 286.204 238.911 283.523 236.163C281.638 234.23 279.576 231.082 277.37 229.592C275.114 228.07 273.78 232.885 272.893 234.675C266.426 247.732 259.358 260.532 250.639 272.244C248.883 274.601 246.307 276.505 247.779 279.516C249.312 282.647 251.332 285.387 251.921 288.92C252.357 291.53 252.128 295.158 250.12 297.142C248.173 299.063 245.314 298.627 242.91 299.379C240.357 300.177 241.077 302.442 241.055 304.709C241.015 308.674 240.967 312.637 240.991 316.602C241.012 320.126 241.061 323.65 241.103 327.173C241.147 330.899 242.054 333.54 243.071 337.049C243.6 338.876 243.782 340.765 243.197 342.602C242.694 344.179 241.868 344.482 240.898 345.598C239.01 347.771 239.613 351.902 239.382 354.665C239.216 356.645 236.451 373.965 238.652 374.182ZM246.518 416.55C247.322 417.56 250.207 417.237 251.333 417.311C253.472 417.452 255.614 417.452 257.753 417.568C262.317 417.816 266.822 418.451 271.399 418.532C275.162 418.598 279.06 418.781 282.675 419.038C284.458 419.165 286.46 418.392 288.193 418.754C289.901 419.112 290.553 419.611 292.402 419.463C297.008 419.094 301.721 419.558 306.335 419.671C310.603 419.776 314.908 419.453 319.183 419.397C323.993 419.333 328.813 419.509 333.622 419.558C338.768 419.611 344.021 419.305 349.101 420.283C348.631 418.12 348.663 415.571 346.917 413.954C345.128 412.297 342.163 411.921 339.861 411.65C336.509 411.257 333.185 411.167 329.84 411.024C327.751 410.936 325.74 410.227 323.663 409.99C320.683 409.65 317.477 409.847 314.475 409.798C313.445 409.782 312.76 409.401 311.816 409.256C310.707 409.087 309.623 409.371 308.414 409.076C305.907 408.463 303.349 407.822 300.916 407.004C299.431 406.504 299.492 406.081 298.275 407.24C297.512 407.966 297.044 409.341 296.4 410.196C295.337 411.607 293.433 413.295 291.794 411.596C290.056 409.796 291.918 407.777 291.532 405.909C291.234 404.467 288.495 403.2 287.128 403.745C285.235 404.497 284.674 408.409 282.648 408.852C280.099 409.409 280.787 405.55 281.133 404.113C282.036 400.353 281.713 400.23 278.712 397.727C276.425 395.818 275.786 395.073 272.948 396.5C270.088 397.937 266.965 398.562 263.777 398.906C260.012 399.312 256.5 398.887 252.815 398.134C251.081 397.779 247.702 396.448 246.569 398.27C245.292 400.323 246.605 405.352 246.652 407.729C246.687 409.5 246.795 411.322 246.626 413.089C246.539 414.002 245.869 415.733 246.518 416.55ZM292.704 362.912C295.351 362.682 297.944 361.979 300.583 361.66C301.545 361.544 303.611 361.578 304.406 360.897C305.379 360.064 304.923 360.146 304.725 358.935C303.78 353.176 303.42 347.599 303.559 341.746C303.663 337.366 304.517 330.552 301.909 326.743C298.836 322.254 294.165 318.933 291.048 314.43C289.361 311.995 287.009 305.457 292.347 305.632C294.47 305.702 296.739 307.049 298.801 307.548C301.719 308.254 301.897 307.545 301.639 304.899C301.033 298.688 301.213 292.451 300.58 286.237C299.929 279.85 299.231 273.459 298.514 267.077C298.165 263.977 298.006 260.694 297.405 257.639C296.82 254.67 293.938 256.268 291.417 256.147C284.739 255.827 278.249 251.73 271.538 252.371C277.133 262.875 286.674 270.853 292.102 281.496C293.978 285.174 295.725 290.927 291.099 293.383C285.943 296.12 278.074 292.652 272.77 291.771C270.913 291.463 263.539 289.306 263.197 292.18C263.012 293.727 266.014 297.346 266.764 298.463C268.473 301.012 270.442 303.375 272.292 305.82C275.985 310.704 280.379 314.954 284.21 319.734C287.551 323.903 291.651 327.989 294.344 332.614C296.872 336.955 297.359 344.777 290.252 343.922C282.976 343.047 276.648 337.367 269.232 337.2C273.022 342.199 277.348 346.75 281.555 351.391C283.58 353.625 285.567 355.888 287.486 358.214C288.714 359.702 290.401 363.112 292.704 362.912ZM302.633 317.608C302.473 315.529 302.976 314.368 301.09 313.229C299.874 312.495 297.002 311.354 295.669 311.859C296.173 312.444 301.932 319.334 302.547 318.778C302.7 318.404 302.729 318.014 302.633 317.608ZM292.594 221.992C292.248 217.993 291.443 214.039 291.27 210.026C291.153 207.313 291.54 203.703 289.703 201.44C287.481 205.6 285.987 210.101 283.766 214.264C282.816 216.045 281.757 217.766 280.774 219.528C280.103 220.733 278.134 223.32 278.289 224.756C278.553 227.209 283.425 230.723 285.003 232.474C288.365 236.206 291.656 240.003 295.091 243.669C294.627 236.404 293.221 229.241 292.594 221.992ZM292.69 157.021C291.762 155.716 285.29 156.333 283.893 156.209C279.497 155.82 274.721 155.473 270.466 154.291C277.221 162.655 283.291 171.709 287.259 181.75C288.765 177.647 289.756 173.376 290.676 169.11C291.143 166.94 291.545 164.761 291.894 162.569C292.051 161.577 293.29 157.865 292.69 157.021ZM272.064 218.222C273.873 219.126 279.36 205.611 279.603 204.113C277.001 204.708 266.642 205.193 266.033 208.478C265.749 210.013 267.519 211.865 268.293 212.975C269.241 214.334 270.567 217.476 272.064 218.222ZM255.624 204.465C251.793 209.269 244.642 208.298 239.293 207.616C235.671 207.153 232.083 206.53 228.471 205.997C224.908 205.471 220.585 204.498 217.128 205.967C222.733 213.851 229.948 220.371 236.761 227.17C240.253 230.657 243.627 234.259 246.984 237.874C250.277 241.421 252.904 245.886 256.397 249.172C259.362 243.753 262.168 238.252 265.026 232.777C266.226 230.477 267.771 228.406 269.004 226.133C270.362 223.629 270.57 222.476 268.838 220.206C266.259 216.827 262.634 212.251 263.153 207.713C263.758 202.414 270.049 201.832 274.168 200.69C276.238 200.115 278.614 199.68 280.506 198.634C282.91 197.304 283.018 195.11 283.814 192.729C284.776 189.846 285.659 187.974 284.643 184.942C283.797 182.419 282.531 179.915 281.362 177.531C278.903 172.519 275.83 167.905 272.571 163.387C270.429 160.418 267.902 154.493 264.071 153.7C261.352 153.137 257.922 153.368 255.133 153.214C251.883 153.035 248.628 152.933 245.375 152.792C238.634 152.501 231.415 151.863 224.707 152.752C232.607 161.3 240.592 169.633 247.619 178.942C252.146 184.937 261.8 196.72 255.624 204.465ZM285.857 139.805C282.194 133.007 278.792 126.284 273.831 120.347C269.541 115.212 265.649 109.855 261.197 104.841C251.856 94.3213 239.733 86.5473 228.431 78.374C225.874 76.5243 222.602 75.5163 219.796 73.9032C216.324 71.9078 212.604 70.2426 208.847 68.8632C202.03 66.3616 194.204 65.0848 186.945 65.5927C178.922 66.1535 172.87 68.99 167.889 75.2517C163.006 81.3889 162.25 88.164 162.117 95.8779C162.055 99.5434 162.01 103.23 162.045 106.896C162.08 110.525 162.551 112.818 164.772 115.613C166.6 117.913 170.451 119.075 173.079 120.138C176.654 121.584 180 123.197 183.335 125.142C184.778 125.984 188.204 129.152 189.984 128.816C192.606 128.32 193.249 123.663 193.509 121.596C194.486 113.866 194.382 105.96 193.908 98.1913C193.666 94.2133 191.817 88.2362 192.865 84.2109C193.3 82.5383 194.293 81.9454 195.52 83.4219C197.037 85.2486 197.41 89.5355 197.802 91.7385C199.183 99.4973 199.092 107.297 199.137 115.143C199.155 118.26 200.894 119.877 202.034 122.655C203.492 126.206 204.685 129.912 205.404 133.686C205.821 135.876 206.116 138.107 206.084 140.342C206.067 141.569 205.463 143.521 205.934 144.687C206.848 146.948 212.523 145.684 214.425 145.641C222.904 145.452 231.358 145 239.85 144.891C257.041 144.67 274.355 147.226 291.191 150.471C289.447 146.899 287.743 143.306 285.857 139.805ZM278.469 103.509C279.816 103.729 284.341 106.204 285.122 104.635C285.79 103.294 282.488 98.4905 281.994 97.2112C280.848 94.2406 280.571 90.924 279.896 87.823C279.471 85.8688 279.431 82.0067 278.374 80.2656C277.193 78.3188 274.44 79.2964 272.485 79.3547C269.152 79.4542 265.786 79.4524 262.45 79.4409C259.058 79.4287 255.668 79.3401 252.275 79.3504C248.808 79.3608 245.383 78.7849 241.942 78.7849C242.328 80.032 243.941 80.6407 244.955 81.2275C246.516 82.1323 247.83 83.2071 249.198 84.3881C252.405 87.1536 255.602 89.3644 258.291 92.6639C260.721 95.6467 264.115 98.8364 267.131 101.235C268.747 102.518 269.851 102.415 271.808 102.398C274.149 102.378 276.184 103.135 278.469 103.509ZM286.775 96.8629C287.617 99.4451 287.696 100.204 290.427 100.02C293.938 99.7837 297.458 99.5634 300.974 99.3085C308.997 98.7278 317.027 97.528 325.051 97.1232C331.892 96.7779 339.279 95.9513 346.077 96.6644C349.25 96.997 352.632 96.3567 355.868 96.4836C359.774 96.6371 363.717 96.6207 367.454 97.8241C370.569 98.8279 373.171 99.3704 375.396 101.967C377.639 104.581 379.169 107.876 380.66 110.953C383.55 116.917 385.812 124.704 390.896 129.221C392.18 130.362 394.373 132.299 396.241 132.084C399.315 131.73 398.372 127.657 398.102 125.59C397.192 118.626 394.46 112.608 392.421 105.957C391.812 103.969 390.604 98.7181 393.761 97.9862C396.032 97.4594 399.601 102.46 400.906 103.803C403.78 106.761 406.593 109.631 409.806 112.235C412.459 114.384 415.125 116.76 418.791 116.298C417.037 111.563 415.101 106.978 412.227 102.8C409.76 99.2133 405.603 95.9853 404.061 91.8598C402.9 88.7533 403.928 84.5149 407.539 87.2482C410.676 89.6217 413.391 92.5256 416.597 94.8566C420.804 97.9146 425.579 100.449 430.566 101.962C432.216 102.462 435.144 103.431 436.725 102.237C439.084 100.457 436.678 96.7433 435.354 95.1072C422.938 79.7637 402.29 74.2613 383.45 73.1046C378.539 72.8029 373.432 73.2872 368.501 73.357C363.823 73.422 359.481 73.9954 354.858 74.68C345.261 76.1007 335.643 77.2561 326.087 78.6756C323.529 79.0555 320.494 79.808 317.947 79.7091C316.898 79.6684 316.353 79.3869 315.307 79.6672C314.414 79.907 313.771 80.3858 312.776 80.5466C307.113 81.4605 301.35 81.8168 295.612 81.8902C292.852 81.9248 290.064 81.8726 287.325 81.5109C285.712 81.2979 284.06 80.6267 283.605 82.5444C283.262 83.9906 284.406 86.73 284.799 88.1227C285.601 90.9696 285.876 94.1053 286.775 96.8629ZM184.124 47.2653C185.089 47.3017 186.679 47.4468 186.993 46.2397C187.584 43.9658 184.547 45.3537 183.984 43.9221C183.357 42.3284 185.495 41.9158 186.439 41.6585C188.361 41.1329 187.867 41.2452 187.919 39.2474C187.967 37.4043 188.562 35.7257 189.309 34.0562C190.348 31.7368 190.401 31.8539 188.072 31.5875C184.152 31.1396 183.297 27.675 181.847 24.5053C180.952 22.5494 179.961 20.6414 179.405 18.5519C179.066 17.2842 179.113 15.2694 177.876 14.5551C176.204 13.5902 172.311 14.5879 170.55 14.8197C167.606 15.2069 164.511 15.6462 161.695 16.6348C159.281 17.4826 158.362 19.4489 156.185 19.7972C154.778 20.0218 146.31 19.4908 147.423 22.0875C148.115 23.7055 151.385 22.7812 152.59 22.7326C154.129 22.6714 156.005 22.442 157.531 22.743C159.055 23.0446 159.198 23.6156 159.794 25.1346C158.365 25.0636 153.02 24.2644 151.853 25.3161C150.817 26.2488 151.582 27.2714 152.624 27.6143C154.657 28.2837 157.405 26.985 159.538 27.5433C161.057 27.9408 160.951 27.9948 161.577 29.5211C161.903 30.3173 162.274 31.1317 162.413 31.988C163.197 36.8247 158.765 33.07 156.922 31.9989C153.551 30.0393 149.897 30.4053 150.552 35.1134C150.768 36.6712 151.607 38.0342 152.685 39.1575C154.204 40.7409 154.597 41.0394 154.675 43.4317C154.742 45.4902 154.522 47.6926 155.25 49.6691C156.052 51.846 157.762 53.7012 159.098 55.5594C160.702 57.7915 162.361 59.9962 163.908 62.2683C164.575 63.2472 165.526 65.7111 166.811 66.0376C168.02 66.344 169.895 64.4021 170.896 63.8462C173.324 62.4989 175.99 61.622 178.486 60.4162C176.395 58.5555 174.533 56.4448 172.486 54.5757C170.886 53.1161 170.059 52.8382 170.586 50.3737C171.769 44.8451 180.08 47.1136 184.124 47.2653ZM152.683 163.442C146.075 169.847 136.248 173.85 127.309 175.462C117.946 177.15 107.268 178.401 98.1458 175.136C88.793 171.788 80.0475 166.974 72.1294 160.985C71.1559 160.248 60.2495 149.591 59.3712 150.431C62.611 155.287 66.0109 160.022 69.4453 164.74C71.1329 167.058 76.9676 175.035 73.6126 177.92C71.3905 179.832 67.6105 176.752 65.786 175.517C61.3939 172.544 56.5011 170.943 51.1627 170.943C53.6291 175.475 57.3787 179.487 59.3845 184.274C60.3319 186.536 59.8494 186.372 57.7085 185.757C55.0293 184.988 51.9907 184.098 49.1952 183.972C47.895 183.913 45.2552 184.486 45.0352 186.185C44.8248 187.811 48.2732 190.877 49.2358 192.041C52.7629 196.31 56.358 200.36 60.7186 203.802C69.0895 210.407 79.0261 214.666 89.1397 217.83C99.4721 221.062 110.515 222.035 121.078 219.434C126.311 218.145 131.112 216.397 135.799 213.787C137.921 212.606 140.153 212.071 142.194 210.682C144.314 209.24 146.463 207.801 148.628 206.429C153.085 203.602 155.847 200.758 158.958 196.51C160.209 194.802 161.925 193.535 163.118 191.853C164.431 190 165.782 188.112 167.007 186.161C172.655 177.166 178.189 167.496 181.482 157.354C183.18 152.126 184.333 146.747 185.757 141.442C186.248 139.616 188.056 136.105 187.679 134.251C187.314 132.462 184.487 131.737 183.087 130.978C178.999 128.765 174.897 126.8 170.909 124.446C165.399 121.194 166.375 127.862 166.018 131.712C164.957 143.158 161.114 155.271 152.683 163.442ZM199.288 167.818C200.45 168.815 203.392 169.434 204.879 168.979C203.413 166.793 201.153 165.359 199.253 163.6C199.045 164.809 198.126 166.822 199.288 167.818ZM192.193 245.588C194.869 245.784 197.661 246.588 200.314 246.609C202.681 246.628 205.675 246.821 207.975 246.312C214.319 244.908 210.568 239.164 208.36 235.415C207.139 233.342 205.595 231.486 204.322 229.449C204.015 228.958 203.162 226.954 202.481 226.886C201.479 226.787 201.167 228.431 200.684 229.438C199.377 232.163 198.169 234.979 196.686 237.615C195.194 240.265 193.111 242.642 192.193 245.588ZM123.565 285.923C123.017 282.874 114.103 285.971 112.087 286.335C111.508 286.439 104.525 287.29 104.588 287.898C106.899 288.069 124.247 289.718 123.565 285.923ZM2.35689 353.992C0.991242 354.587 1.03973 350.238 0.976695 349.661C0.849404 348.499 0.689381 346.405 1.27977 345.384C1.71316 344.635 1.84046 345.016 2.07322 344.818C3.97955 343.201 1.6774 342.509 1.24886 341.219C1.11672 340.823 1.10459 339.73 1.30159 339.4C1.8641 338.451 2.02048 339.161 2.68906 338.763C3.13761 338.497 4.04744 339.155 3.78437 337.94C3.56737 336.938 2.8012 337.553 2.41751 337.239C0.958511 336.046 1.10702 334.48 1.34099 332.574C1.56284 330.762 1.77681 328.824 2.30961 327.109C2.58299 326.229 2.95577 326.626 2.92607 325.586C2.91031 325.044 2.08655 324.508 2.05927 323.826C2.02654 322.978 2.81211 321.617 2.85636 320.723C2.91455 319.55 2.92546 318.531 2.79453 317.421C2.71452 316.742 2.53449 316.495 2.49691 315.667C2.46236 314.888 2.63269 313.976 2.64906 313.164C2.69512 310.858 3.00244 308.541 3.40735 306.336C3.64496 305.99 3.83165 305.619 3.96925 305.221C3.87469 304.808 3.71648 304.42 3.49524 304.059C3.43402 303.005 3.45402 301.975 3.46675 300.906C3.49039 298.923 3.11215 297.04 2.99638 295.085C2.96244 294.504 2.73392 293.536 3.13701 292.999C3.44432 292.59 4.51902 292.691 4.63722 292.298C4.97666 291.172 3.96015 291.844 3.74012 291.274C3.56373 290.817 3.65344 290.215 3.62435 289.756C3.54252 288.513 5.33005 280.069 6.87815 281.167C6.26109 280.729 7.47157 277.822 7.86435 277.33C9.32396 275.5 10.1956 277.573 11.3794 278.859C13.036 280.66 14.478 279.502 16.6299 279.095C19.2939 278.593 22.2216 278.77 24.922 278.828C27.6902 278.888 30.4979 279.044 33.2553 279.288C36.2242 279.551 39.0998 280.448 42.0984 280.404C46.5426 280.337 51.0451 280.441 55.4858 280.282C56.3744 280.249 58.525 280.342 58.8978 279.212C59.0378 278.787 58.2358 277.895 58.1152 277.426C57.8825 276.527 57.8661 275.346 58.2625 274.465C59.4597 271.809 61.9509 273.977 63.7057 274.943C66.3497 276.397 69.0901 277.635 72.0106 278.422C83.6583 281.557 97.3997 281.382 109.293 279.902C121.371 278.398 133.311 274.76 145.087 271.779C155.838 269.058 165.762 263.024 174.015 255.641C182.428 248.115 189.067 237.677 193.223 227.198C197.853 215.524 194.485 203.771 194.367 191.831C194.309 185.877 192.985 180.065 192.622 174.129C192.271 168.373 192.763 162.97 194.489 157.335C194.929 155.9 195.547 154.458 195.868 152.99C196.165 151.63 195.639 150.539 195.814 149.256C196.188 146.511 199.221 146.789 200.547 144.748C201.748 142.901 200.511 140.025 200.085 138.043C199.346 134.602 198.428 131.203 197.582 127.788C196.709 129.821 195.893 131.85 195.366 134.005C195.23 134.557 195.218 135.532 194.84 136.022C194.568 136.377 193.878 136.331 193.663 136.658C192.935 137.762 193.018 138.868 192.892 140.287C192.647 143.039 192.202 145.761 191.75 148.484C190.23 157.633 189.072 166.65 185.48 175.286C178.86 191.202 169.917 206.011 156.693 217.301C150.7 222.417 143.078 225.598 135.825 228.294C127.172 231.509 118.942 233.251 109.654 232.417C100.888 231.63 92.1274 228.906 84.0977 225.375C76.1893 221.896 68.764 218.834 62.0115 213.23C54.796 207.241 47.5901 200.013 42.6269 191.999C40.817 189.075 37.5947 183.045 38.3845 179.385C39.3974 174.691 46.6039 177.786 49.2067 178.759C47.0167 175.172 41.1546 168.785 44.069 164.312C48.3235 157.784 59.4584 164.395 64.0179 166.815C61.6685 162.032 58.077 158.014 55.5312 153.347C54.2704 151.035 50.7845 141.632 55.9058 141.123C57.4563 140.969 59.1026 142.74 60.1979 143.628C62.3243 145.353 64.4337 147.097 66.5425 148.843C71.1516 152.659 76.0166 155.904 81.3252 158.668C91.9486 164.197 102.225 167.134 114.291 165.958C124.572 164.957 135.909 161.83 143.903 155.048C148.704 150.976 152.521 146.471 154.987 140.619C157.71 134.157 159.446 127.058 161.351 120.316C158.398 119.555 156.329 119.996 156.899 116.481C157.582 112.268 157.431 108.004 157.456 103.728C157.508 94.8626 157.672 85.8998 160.443 77.3927C160.937 75.8786 161.371 74.3183 162.221 72.9553C163.269 71.2742 164.242 71.0242 162.893 69.1915C160.296 65.6631 157.598 62.647 155.672 58.5925C154.67 56.4836 153.74 54.4179 152.505 52.4468C150.48 49.2146 147.832 46.8429 145.234 44.0428C142.251 40.8295 139.914 37.7982 138.381 33.6702C137.664 31.7434 136.688 29.8263 136.317 27.7909C135.876 25.364 136.334 22.8813 136.543 20.4533C137.236 12.3983 139.94 5.89812 147.855 2.7509C154.287 0.192945 161.681 -0.908522 168.424 1.06926C176.583 3.46275 180.45 10.6256 184.335 17.5573C185.432 19.512 186.106 21.5802 187.1 23.5641C188.118 25.5977 189.175 25.6007 191.052 26.4261C194.771 28.061 194.456 32.7769 192.841 35.8768C190.789 39.816 191.205 44.3797 189.437 48.4918C187.625 52.7029 184.815 53.8759 180.529 54.8196C182.163 56.1183 183.653 57.8163 185.735 58.3716C188.264 59.0452 191.327 58.4026 193.944 58.4396C199.377 58.516 204.872 59.2528 210.035 60.9909C215.106 62.6974 219.651 65.4283 224.365 67.8721C226.519 68.9894 228.529 70.583 230.991 70.9071C233.38 71.2221 235.786 70.6328 238.189 70.9417C243.457 71.6196 249.232 70.7651 254.605 70.648C260.392 70.5217 266.199 70.6024 271.973 70.1788C274.468 69.9962 276.932 69.7334 279.435 69.9513C281.71 70.1485 283.066 69.6126 285.033 71.1705C286.341 72.2058 287.383 74.7401 288.924 75.0854C290.566 75.4538 293.802 74.4233 295.424 74.1787C300.877 73.3558 306.374 72.2677 311.794 71.2645C314.333 70.7942 316.727 69.9373 319.289 69.4949C321.932 69.0379 324.677 68.8893 327.289 68.3012C331.515 67.3496 336.078 66.9952 340.484 66.3871C345.645 65.6753 350.951 64.1739 356.153 63.9839C377.924 63.1889 402.326 61.8957 421.63 73.9736C426.162 76.8095 430.82 80.4307 434.311 84.4876C437.519 88.2144 441.458 93.1446 442.276 98.1106C443.007 102.543 442.474 110.309 436.55 110.363C430.773 110.415 424.838 106.965 419.867 104.409C421.99 109.502 428.442 120.409 422.842 125.354C417.062 130.457 406.421 119.384 402.604 115.829C403.358 121.27 408.745 141.044 398.552 141.35C388.604 141.649 382.832 129.379 379.288 122.095C377.418 118.249 376.021 113.731 372.984 110.601C369.929 107.455 365.695 107.559 361.561 107.157C351.513 106.179 341.519 106.128 331.413 105.886C318.621 105.58 306.059 107.689 293.251 106.498C293.412 108.969 292.474 113.466 289.972 114.412C286.286 115.807 281.764 113.802 277.991 113.802C278.244 115.313 280.394 116.905 281.299 118.046C282.923 120.09 284.32 122.283 285.626 124.54C288.177 128.95 290.891 133.367 292.702 138.146C293.613 140.551 294.391 143.03 295.048 145.516C295.425 146.945 295.418 149.081 296.183 150.345C297.133 151.916 298.592 151.009 299.795 152.24C301.53 154.017 299.72 154.951 299.173 156.517C298.58 158.211 299.324 161.08 299.098 162.942C298.76 165.738 298.401 168.553 297.938 171.33C297.09 176.408 295.292 181.104 294.089 186.06C292.947 190.761 296.037 195.733 297.057 200.281C298.241 205.56 298.929 210.9 300.145 216.169C301.428 221.732 302.024 227.46 302.91 233.095C303.774 238.601 305.019 244.039 305.864 249.548C307.474 260.047 308.497 270.738 309.766 281.279C310.432 286.805 310.943 292.403 310.992 297.971C311.038 303.185 311.774 308.278 311.881 313.482C311.995 318.999 312.06 324.519 312.298 330.031C312.533 335.484 311.857 340.913 311.61 346.357C311.492 348.952 311.405 351.551 311.444 354.148C311.475 356.341 312.077 358.907 311.533 361.053C310.459 365.295 304.493 367.843 300.747 369.077C296.168 370.587 291.335 371.629 286.647 372.744C284.364 373.287 282.05 373.75 279.728 374.091C278.826 374.224 277.779 374.17 276.936 374.554C275.666 375.132 275.916 374.841 275.849 376.286C275.74 378.622 276.424 381.18 276.779 383.469C277.107 385.577 276.69 389.043 277.504 390.932C278.431 393.081 284.96 394.841 286.558 393.383C287.685 392.355 288.007 390.412 289.335 389.546C291.246 388.299 292.125 390.047 292.116 391.924C292.108 393.338 291.039 395.045 292.325 396.078C293.439 396.974 295.788 396.505 296.865 395.767C298.658 394.538 302.38 386.93 303.291 393.401C303.505 394.926 302.848 396.701 304.14 397.859C305.35 398.943 308.269 398.895 309.796 399.088C312.234 399.397 314.367 399.5 316.828 399.448C319.574 399.389 322.168 400.034 324.868 400.155C329.075 400.344 333.297 400.914 337.599 400.997C341.99 401.082 346.776 402.23 350.154 405.212C354.032 408.634 353.233 412.866 352.494 417.451C352.005 420.483 355.871 423.758 351.969 426.409C350.404 427.473 347.804 427.249 346.004 427.265C342.928 427.293 339.886 426.934 336.807 427.106C314.376 428.356 291.86 427.424 269.434 426.684C264.195 426.511 258.754 426.752 253.559 426.118C251.245 425.836 248.948 425.433 246.629 425.185C244.645 424.973 242.276 425.323 240.381 424.677C235.689 423.081 240.71 418.223 241.084 415.448C241.811 410.062 241.503 404.355 241.538 398.928C241.575 393.159 241.538 387.388 241.538 381.619C239.043 381.793 232.042 383.642 230.086 381.499C228.469 379.727 231.221 376.028 231.356 373.901C231.906 365.232 231.72 356.553 232.374 347.875C233.048 338.926 232.965 330.057 233.246 321.107C233.545 311.546 234.224 302.02 234.224 292.446C227.243 299.84 220.576 307.96 212.814 314.551C209.49 317.374 205.869 319.817 202.397 322.449C198.485 325.415 194.842 328.715 190.953 331.708C183.718 337.279 175.113 340.535 167.469 345.487C159.742 350.494 151.497 354.617 142.601 357.095C132.876 359.804 122.564 360.704 112.501 360.185C107.673 359.936 102.87 359.315 98.1149 358.447C96.1328 358.085 94.1707 357.613 92.188 357.258C89.3834 356.755 88.0165 357.225 85.3907 357.739C81.9405 358.414 81.0816 353.371 80.0584 350.947C78.1721 346.475 77.3556 341.589 75.6862 337.016C72.767 329.018 70.0769 321.111 67.4941 312.977C66.908 311.132 66.5176 307.931 64.3185 307.671C62.8341 307.496 60.2774 309.153 58.822 309.61C56.2913 310.405 53.8928 310.763 51.2573 310.828C49.0357 310.883 48.7702 311.716 47.3816 313.298C46.1086 314.747 43.8101 315.579 44.2423 317.684C44.4981 318.931 45.8213 319.893 46.0686 321.301C46.956 326.355 41.8856 321.986 40.1035 320.882C39.024 323.264 47.1797 325.909 44.2078 329.282C42.7524 330.933 39.718 328.424 38.2699 327.783C34.8925 326.287 34.3791 330.356 33.4796 332.992C31.829 337.832 30.724 342.91 29.459 347.862C28.2406 352.634 27.2496 357.51 25.3269 362.066C23.6133 366.126 20.6292 368.776 18.498 372.443C17.4494 374.246 16.291 375.546 14.024 375.632C12.4905 375.69 9.6537 375.086 8.20501 374.501C6.83693 373.948 5.35369 372.265 4.39719 371.209C3.06912 369.743 3.33158 368.326 2.25627 366.531C2.30295 367.432 2.50358 368.27 2.55207 369.151C0.589366 367.605 2.54601 365.173 2.1896 363.213C2.07746 362.592 1.43797 362.072 1.4016 361.421C1.38584 361.154 1.95562 360.541 1.99381 360.169C2.03927 359.729 2.07503 358.449 1.95017 358.123C1.85985 357.888 1.10459 356.692 1.12096 356.909C1.10944 356.751 0.842736 356.501 0.985787 355.979C1.20218 355.19 2.45691 355.05 2.35689 353.992Z" fill="black"/>
</svg>
